<svg width="375" height="163" viewBox="0 0 375 163" fill="none" xmlns="http://www.w3.org/2000/svg">
<g opacity="0.12">
<path d="M346.983 133.183C342.869 131.812 339.681 129.31 337.418 125.676C335.224 121.973 334.127 117.448 334.127 112.1C334.127 104.763 336.013 99.0723 339.784 95.027C343.555 90.9817 348.834 88.959 355.622 88.959H374.135V160.952H363.747V134.932H357.371L342.972 160.952H331.453L346.983 133.183ZM363.747 125.161V98.8324H355.725C352.091 98.8324 349.349 99.9294 347.497 102.123C345.646 104.318 344.72 107.574 344.72 111.894C344.72 116.145 345.646 119.436 347.497 121.767C349.349 124.03 352.057 125.161 355.622 125.161H363.747Z" fill="white"/>
<path d="M304.159 162.19C297.714 162.19 292.606 160.235 288.835 156.327C285.133 152.419 283.281 146.9 283.281 139.769V110.149C283.281 102.949 285.133 97.3955 288.835 93.4873C292.538 89.5791 297.611 87.625 304.056 87.625C310.639 87.625 315.781 89.5448 319.484 93.3845C323.186 97.1555 325.175 102.606 325.449 109.737H315.164C314.89 105.555 313.827 102.469 311.976 100.481C310.124 98.4926 307.45 97.4984 303.954 97.4984C300.8 97.4984 298.331 98.5611 296.549 100.687C294.766 102.812 293.875 105.966 293.875 110.149V139.769C293.875 143.951 294.766 147.105 296.549 149.231C298.4 151.288 300.937 152.316 304.159 152.316C307.656 152.316 310.33 151.322 312.181 149.334C314.101 147.345 315.233 144.294 315.575 140.18H325.86C325.517 147.242 323.46 152.693 319.689 156.533C315.987 160.304 310.81 162.19 304.159 162.19Z" fill="white"/>
<path d="M236.234 88.959H246.622V117.653H255.467C262.323 117.653 267.637 119.608 271.408 123.516C275.179 127.424 277.065 132.704 277.065 139.354C277.065 146.417 275.214 151.799 271.511 155.501C267.809 159.135 262.461 160.952 255.467 160.952H236.234V88.959ZM254.953 151.388C258.587 151.388 261.398 150.393 263.386 148.405C265.375 146.348 266.369 143.331 266.369 139.354C266.369 135.446 265.375 132.498 263.386 130.509C261.398 128.521 258.587 127.527 254.953 127.527H246.622V151.388H254.953Z" fill="white"/>
<path d="M228.959 98.8324H213.944V160.952H203.35V98.8324H188.438V88.959H228.959V98.8324Z" fill="white"/>
<path d="M176.548 146.451H157.521L154.23 160.952H143.328L161.429 88.959H172.64L190.741 160.952H179.942L176.548 146.451ZM174.388 136.783L169.863 117.448C168.834 112.648 167.943 107.506 167.189 102.021H166.88C165.989 108.534 165.098 113.677 164.206 117.448L159.784 136.783H174.388Z" fill="white"/>
<path d="M127.81 123.619C132.198 124.853 135.352 126.944 137.272 129.893C139.26 132.841 140.254 136.544 140.254 141C140.254 145.32 139.294 149.091 137.375 152.314C135.455 155.536 132.815 158.004 129.455 159.719C126.096 161.433 122.29 162.29 118.039 162.29C113.583 162.29 109.674 161.33 106.315 159.41C103.024 157.49 100.452 154.885 98.6011 151.594C96.7498 148.234 95.7213 144.497 95.5156 140.383H106.006C106.212 143.811 107.343 146.657 109.4 148.92C111.457 151.182 114.302 152.314 117.936 152.314C121.433 152.314 124.279 151.285 126.473 149.228C128.667 147.103 129.764 144.189 129.764 140.486C129.764 136.646 128.598 133.698 126.267 131.641C123.936 129.584 120.816 128.556 116.908 128.556H111.457V119.299H115.982C123.936 119.299 127.913 115.528 127.913 107.986C127.913 104.695 127.021 102.124 125.239 100.273C123.524 98.4214 121.09 97.4957 117.936 97.4957C111.148 97.4957 107.515 101.541 107.035 109.632H96.7498C97.0926 102.844 99.081 97.4615 102.715 93.4847C106.349 89.5079 111.423 87.5195 117.936 87.5195C124.176 87.5195 129.147 89.3708 132.849 93.0733C136.552 96.7073 138.403 101.713 138.403 108.089C138.403 111.997 137.58 115.22 135.935 117.757C134.289 120.294 131.581 122.248 127.81 123.619Z" fill="white"/>
<path d="M77.4464 146.451H58.4195L55.1284 160.952H44.2266L62.3277 88.959H73.5381L91.6393 160.952H80.8403L77.4464 146.451ZM75.2866 136.783L70.7613 117.448C69.7328 112.648 68.8414 107.506 68.0872 102.021H67.7787C66.8873 108.534 65.996 113.677 65.1046 117.448L60.6822 136.783H75.2866Z" fill="white"/>
<path d="M15.0158 129.481L10.2848 136.577V160.952H0V88.959H10.2848V120.225L15.0158 111.791L29.4144 88.959H41.5504L20.9809 120.328L44.533 160.952H32.6027L15.0158 129.481Z" fill="white"/>
<path d="M375.001 62.2228V71.9933H338.695V0H373.972V9.77053H349.083V30.6486H372.018V40.2134H349.083V62.2228H375.001Z" fill="white"/>
<path d="M325.311 0V71.9933H314.923V40.4191H294.559V71.9933H284.172V0H294.559V30.6486H314.923V0H325.311Z" fill="white"/>
<path d="M251.845 57.4918H232.818L229.527 71.9933H218.625L236.726 0H247.937L266.038 71.9933H255.239L251.845 57.4918ZM249.685 47.8242L245.16 28.4888C244.131 23.6892 243.24 18.5469 242.486 13.0617H242.177C241.286 19.5753 240.394 24.7177 239.503 28.4888L235.081 47.8242H249.685Z" fill="white"/>
<path d="M158.906 0H169.294V28.6945H178.139C184.995 28.6945 190.309 30.6486 194.08 34.5568C197.851 38.465 199.737 43.7445 199.737 50.3953C199.737 57.4576 197.885 62.8399 194.183 66.5424C190.48 70.1764 185.132 71.9933 178.139 71.9933H158.906V0ZM177.625 62.4285C181.258 62.4285 184.07 61.4343 186.058 59.4459C188.046 57.389 189.041 54.3721 189.041 50.3953C189.041 46.4871 188.046 43.5388 186.058 41.5504C184.07 39.5621 181.258 38.5679 177.625 38.5679H169.294V62.4285H177.625Z" fill="white"/>
<path d="M153.6 9.87337H138.584V71.9933H127.991V9.87337H113.078V0H153.6V9.87337Z" fill="white"/>
<path d="M48.6172 0H59.2105V28.7973H66.5127C73.5063 28.7973 78.8887 30.7514 82.6598 34.6597C86.4308 38.4993 88.3164 43.7445 88.3164 50.3953C88.3164 57.4576 86.4651 62.8399 82.7626 66.5424C79.0601 70.1764 73.6434 71.9933 66.5127 71.9933H48.6172V0ZM96.8527 0H107.24V71.9933H96.8527V0ZM65.9984 62.3257C69.701 62.3257 72.5464 61.3315 74.5348 59.3431C76.5232 57.3547 77.5174 54.3721 77.5174 50.3953C77.5174 46.5557 76.5232 43.6417 74.5348 41.6533C72.5464 39.6649 69.701 38.6707 65.9984 38.6707H59.2105V62.3257H65.9984Z" fill="white"/>
<path d="M0 0H37.4365V9.77053H10.3876V28.386H19.7467C26.5347 28.386 31.8142 30.3401 35.5853 34.2483C39.4249 38.1565 41.3448 43.436 41.3448 50.0868C41.3448 57.2176 39.4592 62.6685 35.6881 66.4396C31.9856 70.1421 26.6718 71.9933 19.7467 71.9933H0V0ZM19.1297 62.12C22.7636 62.12 25.6091 61.1258 27.666 59.1374C29.723 57.0804 30.7514 54.0636 30.7514 50.0868C30.7514 46.1786 29.6887 43.196 27.5632 41.1391C25.5062 39.0821 22.695 38.0536 19.1297 38.0536H10.3876V62.12H19.1297Z" fill="white"/>
<path d="M199.407 65H207L203.181 78H198L199.407 65Z" fill="white"/>
</g>
</svg>
