<svg width="1408" height="147" viewBox="0 0 1408 147" fill="none" xmlns="http://www.w3.org/2000/svg">
<g opacity="0.12">
<path d="M1358.77 82.7883C1351.31 80.3022 1345.53 75.765 1341.43 69.1768C1337.45 62.4643 1335.47 54.2602 1335.47 44.5644C1335.47 31.2637 1338.88 20.9464 1345.72 13.6124C1352.56 6.27834 1362.13 2.61133 1374.43 2.61133H1408V133.132H1389.16V85.9581H1377.6L1351.5 133.132H1330.62L1358.77 82.7883ZM1389.16 68.2445V20.5113H1374.62C1368.03 20.5113 1363.06 22.5002 1359.7 26.478C1356.35 30.4557 1354.67 36.3602 1354.67 44.1915C1354.67 51.8984 1356.35 57.8651 1359.7 62.0914C1363.06 66.1935 1367.97 68.2445 1374.43 68.2445H1389.16Z" fill="white"/>
<path d="M1286.58 135.37C1274.89 135.37 1265.63 131.827 1258.8 124.741C1252.08 117.656 1248.73 107.649 1248.73 94.7217V41.0218C1248.73 27.9697 1252.08 17.901 1258.8 10.8156C1265.51 3.7302 1274.71 0.1875 1286.39 0.1875C1298.32 0.1875 1307.65 3.66805 1314.36 10.6292C1321.07 17.4659 1324.68 27.3482 1325.17 40.276H1306.53C1306.03 32.6934 1304.1 27.0996 1300.75 23.4948C1297.39 19.8899 1292.54 18.0875 1286.2 18.0875C1280.49 18.0875 1276.01 20.0142 1272.78 23.8677C1269.55 27.7211 1267.93 33.4392 1267.93 41.0218V94.7217C1267.93 102.304 1269.55 108.022 1272.78 111.876C1276.14 115.605 1280.74 117.47 1286.58 117.47C1292.92 117.47 1297.77 115.667 1301.12 112.062C1304.6 108.457 1306.65 102.926 1307.27 95.4675H1325.92C1325.3 108.271 1321.57 118.153 1314.73 125.114C1308.02 131.951 1298.64 135.37 1286.58 135.37Z" fill="white"/>
<path d="M1165.33 2.61133H1184.16V54.6331H1200.2C1212.63 54.6331 1222.26 58.1758 1229.1 65.2612C1235.93 72.3466 1239.35 81.9181 1239.35 93.9757C1239.35 106.779 1236 116.537 1229.28 123.25C1222.57 129.838 1212.87 133.132 1200.2 133.132H1165.33V2.61133ZM1199.26 115.791C1205.85 115.791 1210.95 113.989 1214.55 110.384C1218.16 106.655 1219.96 101.185 1219.96 93.9757C1219.96 86.8903 1218.16 81.5452 1214.55 77.9404C1210.95 74.3355 1205.85 72.5331 1199.26 72.5331H1184.16V115.791H1199.26Z" fill="white"/>
<path d="M1153.97 20.5113H1126.75V133.132H1107.54V20.5113H1080.51V2.61133H1153.97V20.5113Z" fill="white"/>
<path d="M1060.84 106.841H1026.35L1020.38 133.132H1000.62L1033.43 2.61133H1053.76L1086.57 133.132H1067L1060.84 106.841ZM1056.93 89.3143L1048.72 54.2602C1046.86 45.5588 1045.24 36.2359 1043.88 26.2915H1043.32C1041.7 38.1005 1040.08 47.4234 1038.47 54.2602L1030.45 89.3143H1056.93Z" fill="white"/>
<path d="M977.923 65.4468C985.878 67.6842 991.596 71.4756 995.077 76.8207C998.682 82.1658 1000.48 88.8783 1000.48 96.9582C1000.48 104.789 998.744 111.626 995.263 117.469C991.783 123.311 986.997 127.786 980.906 130.894C974.815 134.001 967.916 135.555 960.209 135.555C952.129 135.555 945.044 133.815 938.953 130.334C932.986 126.854 928.325 122.13 924.969 116.163C921.613 110.072 919.748 103.298 919.375 95.8394H938.394C938.767 102.055 940.818 107.213 944.547 111.315C948.276 115.417 953.435 117.469 960.023 117.469C966.362 117.469 971.521 115.604 975.499 111.875C979.477 108.021 981.465 102.738 981.465 96.0259C981.465 89.0648 979.352 83.7196 975.126 79.9905C970.9 76.2613 965.244 74.3967 958.158 74.3967H948.276V57.6155H956.48C970.9 57.6155 978.109 50.7787 978.109 37.1051C978.109 31.1385 976.493 26.477 973.261 23.1208C970.154 19.7645 965.741 18.0864 960.023 18.0864C947.717 18.0864 941.128 25.4204 940.258 40.0885H921.613C922.234 27.7822 925.839 18.0243 932.427 10.8146C939.015 3.60486 948.214 0 960.023 0C971.335 0 980.347 3.35624 987.059 10.0687C993.772 16.6569 997.128 25.7312 997.128 37.2916C997.128 44.377 995.636 50.2194 992.653 54.8187C989.67 59.4179 984.76 62.9607 977.923 65.4468Z" fill="white"/>
<path d="M892.054 106.841H857.559L851.593 133.132H831.828L864.645 2.61133H884.969L917.785 133.132H898.207L892.054 106.841ZM888.138 89.3143L879.934 54.2602C878.07 45.5588 876.454 36.2359 875.086 26.2915H874.527C872.911 38.1005 871.295 47.4234 869.679 54.2602L861.661 89.3143H888.138Z" fill="white"/>
<path d="M780.746 76.0758L772.169 88.9414V133.132H753.523V2.61133H772.169V59.2946L780.746 44.005L806.85 2.61133H828.852L791.561 59.481L834.26 133.132H812.631L780.746 76.0758Z" fill="white"/>
<path d="M700.788 115.418V133.132H634.969V2.61133H698.924V20.3248H653.801V58.1758H695.381V75.5164H653.801V115.418H700.788Z" fill="white"/>
<path d="M612.591 2.61133V133.132H593.759V75.8893H556.84V133.132H538.008V2.61133H556.84V58.1758H593.759V2.61133H612.591Z" fill="white"/>
<path d="M465.21 106.841H430.716L424.749 133.132H404.984L437.801 2.61133H458.125L490.942 133.132H471.363L465.21 106.841ZM461.295 89.3143L453.091 54.2602C451.226 45.5588 449.61 36.2359 448.243 26.2915H447.683C446.067 38.1005 444.451 47.4234 442.835 54.2602L434.818 89.3143H461.295Z" fill="white"/>
<path d="M293.266 2.61133H312.098V54.6331H328.133C340.564 54.6331 350.197 58.1758 357.034 65.2612C363.871 72.3466 367.289 81.9181 367.289 93.9757C367.289 106.779 363.933 116.537 357.221 123.25C350.508 129.838 340.812 133.132 328.133 133.132H293.266V2.61133ZM327.201 115.791C333.789 115.791 338.886 113.989 342.491 110.384C346.095 106.655 347.898 101.185 347.898 93.9757C347.898 86.8903 346.095 81.5452 342.491 77.9404C338.886 74.3355 333.789 72.5331 327.201 72.5331H312.098V115.791H327.201Z" fill="white"/>
<path d="M281.91 20.5113H254.687V133.132H235.482V20.5113H208.445V2.61133H281.91V20.5113Z" fill="white"/>
<path d="M89.8672 2.61133H109.072V54.8196H122.311C134.99 54.8196 144.748 58.3623 151.585 65.4477C158.422 72.4088 161.84 81.9181 161.84 93.9757C161.84 106.779 158.484 116.537 151.771 123.25C145.059 129.838 135.239 133.132 122.311 133.132H89.8672V2.61133ZM177.316 2.61133H196.148V133.132H177.316V2.61133ZM121.379 115.605C128.091 115.605 133.25 113.802 136.855 110.198C140.459 106.593 142.262 101.185 142.262 93.9757C142.262 87.0146 140.459 81.7317 136.855 78.1268C133.25 74.522 128.091 72.7195 121.379 72.7195H109.072V115.605H121.379Z" fill="white"/>
<path d="M0 2.61133H67.8707V20.3248H18.8323V54.0737H35.7999C48.1062 54.0737 57.6777 57.6164 64.5145 64.7018C71.4756 71.7872 74.9561 81.3588 74.9561 93.4164C74.9561 106.344 71.5377 116.226 64.7009 123.063C57.9884 129.776 48.3548 133.132 35.7999 133.132H0V2.61133ZM34.6812 115.232C41.2694 115.232 46.428 113.43 50.1572 109.825C53.8864 106.096 55.7509 100.626 55.7509 93.4164C55.7509 86.331 53.8242 80.9237 49.9707 77.1945C46.2416 73.4654 41.1451 71.6008 34.6812 71.6008H18.8323V115.232H34.6812Z" fill="white"/>
<path d="M365.423 126H378.5L371.923 147H363L365.423 126Z" fill="white"/>
</g>
</svg>
