<svg width="132" height="27" viewBox="0 0 132 27" fill="none" xmlns="http://www.w3.org/2000/svg">
<path d="M127.162 0.469727V1.72728H125.485C125.601 2.96533 125.825 4.60307 126.155 6.64049C126.486 8.67792 126.885 10.7738 127.351 12.9282C127.818 15.0729 128.26 16.813 128.679 18.1485C129.106 19.4841 129.466 20.1518 129.758 20.1518C129.884 20.1518 130.098 20.0933 130.399 19.9764C130.701 19.8496 130.944 19.7863 131.129 19.7863C131.372 19.7863 131.576 19.8838 131.741 20.0787C131.916 20.2639 132.004 20.5077 132.004 20.8099C132.004 21.2583 131.897 21.9699 131.683 22.9448C131.479 23.9294 131.216 24.8116 130.895 25.5915C130.574 26.3811 130.224 26.7759 129.845 26.7759C129.515 26.7759 129.286 26.6443 129.16 26.3811C129.043 26.1179 128.926 25.6841 128.81 25.0797C128.703 24.4753 128.601 24.061 128.504 23.8368C128.29 23.2908 128.003 22.8473 127.643 22.5061C127.293 22.1649 126.919 21.9212 126.52 21.775C126.131 21.6287 125.728 21.5361 125.31 21.4971C124.901 21.4581 124.415 21.4386 123.851 21.4386H120.803H119.753C118.635 21.4386 117.711 21.5897 116.982 21.8919C116.263 22.2039 115.713 22.8717 115.334 23.8952C115.247 24.1292 115.13 24.524 114.984 25.0797C114.848 25.6451 114.702 26.0691 114.547 26.3519C114.391 26.6346 114.167 26.7759 113.876 26.7759C113.594 26.7759 113.287 26.4201 112.957 25.7085C112.626 25.0066 112.349 24.1633 112.126 23.1787C111.912 22.1941 111.805 21.3558 111.805 20.6636C111.805 20.3224 111.931 20.0933 112.184 19.9764C112.446 19.8496 112.709 19.7863 112.971 19.7863C113.195 19.7863 113.399 19.8106 113.584 19.8594C113.769 19.8984 113.924 19.9179 114.051 19.9179C114.41 19.9179 114.692 19.7132 114.897 19.3037C115.101 18.8943 115.271 18.2801 115.407 17.4613C115.543 16.6327 115.679 15.8333 115.815 15.0632C115.951 14.293 116.122 13.6155 116.326 13.0306C116.792 11.773 117.264 10.6715 117.74 9.72588C118.227 8.77053 118.732 7.83955 119.257 6.93295C119.782 6.02634 120.152 5.3147 120.366 4.79804C120.579 4.28137 120.686 3.71108 120.686 3.08718C120.686 2.72649 120.56 2.40967 120.307 2.13671C120.064 1.86375 119.602 1.72728 118.922 1.72728H117.303V0.469727H127.162ZM119.33 20.1811H124.537C124.128 18.6213 123.725 17.0762 123.326 15.5457C122.928 14.0054 122.641 12.8161 122.466 11.9778C122.3 11.1297 122.13 10.2474 121.955 9.33106C121.79 8.40496 121.625 7.5081 121.459 6.64049C120.643 7.68358 119.875 8.946 119.155 10.4278C118.445 11.8998 117.877 13.3572 117.449 14.7999C117.031 16.2427 116.822 17.3882 116.822 18.2363C116.822 18.8114 116.909 19.2404 117.084 19.5231C117.269 19.796 117.527 19.9764 117.857 20.0641C118.197 20.1421 118.688 20.1811 119.33 20.1811Z" fill="white"/>
<path d="M101.531 16.6394C101.531 15.6703 101.696 14.7055 102.024 13.745C102.362 12.7759 102.786 11.9193 103.296 11.1752C103.816 10.431 104.343 9.84263 104.88 9.40999C105.416 8.96869 105.884 8.74805 106.282 8.74805C106.853 8.74805 107.532 9.00763 108.319 9.5268C109.107 10.0373 109.786 10.7685 110.357 11.7203C110.937 12.6721 111.227 13.797 111.227 15.0949C111.227 16.2803 110.937 17.4831 110.357 18.7031C109.777 19.9145 109.098 20.9269 108.319 21.7403C107.549 22.545 106.918 22.9473 106.424 22.9473C105.948 22.9473 105.308 22.6445 104.503 22.0388C103.707 21.4244 103.011 20.6327 102.414 19.6636C101.825 18.6945 101.531 17.6864 101.531 16.6394ZM104.244 11.7203C103.993 12.0577 103.79 12.4298 103.634 12.8365C103.487 13.2345 103.413 13.572 103.413 13.8489C103.413 14.6709 103.612 15.5362 104.01 16.4447C104.417 17.3446 105.014 18.1061 105.801 18.7291C106.589 19.3434 107.523 19.6506 108.605 19.6506C108.899 19.0709 109.046 18.4219 109.046 17.7037C109.046 16.6827 108.834 15.7352 108.41 14.8613C107.995 13.9873 107.424 13.2735 106.697 12.7197C105.97 12.1573 105.152 11.8241 104.244 11.7203Z" fill="white"/>
<path d="M89.5928 9.68164H95.9655C96.8567 9.68164 97.5013 9.76817 97.8993 9.94123C98.2973 10.1056 98.4964 10.521 98.4964 11.1872C98.4964 11.8968 98.2627 12.5025 97.7955 13.0043C97.3282 13.5062 96.7485 13.9129 96.0563 14.2244C95.3727 14.5272 94.5983 14.8084 93.7331 15.068V15.2367C94.6243 15.4531 95.5371 15.7689 96.4716 16.1842C97.4061 16.5909 98.2022 17.1404 98.8598 17.8326C99.5174 18.5162 99.8462 19.3252 99.8462 20.2597C99.8462 21.0558 99.6385 21.5533 99.2232 21.7523C98.8165 21.9427 98.2281 22.0379 97.458 22.0379H89.3202C89.0606 22.0379 88.8703 21.9384 88.7491 21.7393C88.6366 21.5317 88.5631 21.1163 88.5285 20.4933C88.4939 19.8617 88.4766 18.8536 88.4766 17.4692C88.4766 15.7559 88.4895 14.3801 88.5155 13.3418C88.5415 12.2948 88.589 11.5117 88.6583 10.9925C88.7361 10.4647 88.8443 10.1143 88.9827 9.94123C89.1212 9.76817 89.3245 9.68164 89.5928 9.68164ZM91.7473 14.5748C92.6904 14.5748 93.4692 14.272 94.0835 13.6663C94.6978 13.0606 95.005 12.3856 95.005 11.6415C95.005 11.2089 94.8579 10.9233 94.5637 10.7849C94.2782 10.6464 93.8499 10.5772 93.2788 10.5772H92.513C92.3832 10.5772 92.2751 10.5815 92.1886 10.5902C92.1107 10.5902 92.0242 10.5945 91.929 10.6032C91.8078 11.754 91.7473 13.0779 91.7473 14.5748ZM91.7732 21.0774C91.8165 21.0774 92.0458 21.0861 92.4611 21.1034C92.8764 21.1207 93.2052 21.1293 93.4475 21.1293C94.3734 21.1293 95.0223 21.0471 95.3944 20.8827C95.7751 20.7183 95.9655 20.2813 95.9655 19.5718C95.9655 18.9921 95.7881 18.395 95.4333 17.7807C95.0872 17.1577 94.5897 16.6385 93.9407 16.2232C93.3004 15.8078 92.5693 15.6002 91.7473 15.6002C91.7473 15.7905 91.7343 16.1323 91.7083 16.6255C91.691 17.1187 91.6824 17.5124 91.6824 17.8066C91.6824 18.2306 91.7127 19.3209 91.7732 21.0774Z" fill="white"/>
<path d="M78.8515 16.7699V15.6537C79.6649 15.6364 80.3268 15.5283 80.8373 15.3293C81.3565 15.1216 81.7329 14.8014 81.9665 14.3688C82.2088 13.9361 82.3299 13.3651 82.3299 12.6555C82.3299 11.9114 82.1655 11.3316 81.8367 10.9163C81.5165 10.501 81.0709 10.2933 80.4999 10.2933C79.8596 10.2933 79.3534 10.5226 78.9813 10.9812C78.6092 11.4312 78.4232 11.946 78.4232 12.5257C78.4232 12.5777 78.4275 12.6512 78.4362 12.7464C78.4535 12.8329 78.4665 12.9281 78.4751 13.0319C78.4924 13.1358 78.5011 13.2136 78.5011 13.2656C78.5011 13.6549 78.1117 13.9275 77.333 14.0832C76.5629 14.2303 75.8966 14.3039 75.3342 14.3039C75.2996 14.3039 75.2823 14.1525 75.2823 13.8496C75.2823 12.9151 75.5332 12.1104 76.0351 11.4355C76.5456 10.7606 77.2378 10.25 78.1117 9.90393C78.9943 9.55782 79.985 9.38477 81.0839 9.38477C81.5425 9.38477 82.1222 9.44966 82.8231 9.57945C83.5326 9.70059 84.2118 9.99912 84.8608 10.475C85.5097 10.9509 85.8342 11.6605 85.8342 12.6036C85.8342 13.7371 85.4622 14.5635 84.718 15.0826C83.9739 15.6018 82.9659 15.9349 81.6939 16.082V16.2508C82.5419 16.4325 83.1735 16.5753 83.5889 16.6791C84.0128 16.7743 84.4455 16.9387 84.8868 17.1723C85.3367 17.3973 85.7044 17.7218 85.99 18.1457C86.2755 18.5697 86.4183 19.1235 86.4183 19.8071C86.4183 20.8022 86.1068 21.6372 85.4838 22.3121C84.8608 22.9956 83.922 23.3374 82.6673 23.3374C82.027 23.3374 81.2656 23.1774 80.383 22.8572C79.985 22.7188 79.6778 22.6106 79.4615 22.5327C79.2452 22.4548 79.0332 22.3856 78.8256 22.3251C78.6265 22.2731 78.4492 22.2472 78.2934 22.2472C77.6185 22.2472 76.8484 22.3856 75.9832 22.6625C75.1265 22.9394 74.3781 23.2552 73.7378 23.61L73.1797 22.9481C73.993 22.0655 74.6636 21.4252 75.1914 21.0271C75.7279 20.6204 76.3422 20.4171 77.0345 20.4171C77.294 20.4171 77.5104 20.4474 77.6834 20.508C77.8651 20.5685 78.0511 20.668 78.2415 20.8065C78.4319 20.9449 78.5876 21.0531 78.7087 21.131C79.3144 21.5376 79.998 21.741 80.7594 21.741C81.0536 21.741 81.3435 21.6631 81.629 21.5074C81.9146 21.343 82.1568 21.0747 82.3558 20.7027C82.5635 20.3219 82.6673 19.8114 82.6673 19.1711C82.6673 18.7212 82.5505 18.3145 82.3169 17.9511C82.0919 17.579 81.7761 17.2891 81.3694 17.0814C80.9628 16.8738 80.5215 16.7699 80.0456 16.7699H78.8515Z" fill="white"/>
<path d="M62.6553 9.68164H69.028C69.9192 9.68164 70.5638 9.76817 70.9618 9.94123C71.3598 10.1056 71.5589 10.521 71.5589 11.1872C71.5589 11.8968 71.3252 12.5025 70.858 13.0043C70.3907 13.5062 69.811 13.9129 69.1188 14.2244C68.4352 14.5272 67.6608 14.8084 66.7956 15.068V15.2367C67.6868 15.4531 68.5996 15.7689 69.5341 16.1842C70.4686 16.5909 71.2647 17.1404 71.9223 17.8326C72.5799 18.5162 72.9087 19.3252 72.9087 20.2597C72.9087 21.0558 72.701 21.5533 72.2857 21.7523C71.879 21.9427 71.2906 22.0379 70.5205 22.0379H62.3827C62.1231 22.0379 61.9328 21.9384 61.8116 21.7393C61.6991 21.5317 61.6256 21.1163 61.591 20.4933C61.5564 19.8617 61.5391 18.8536 61.5391 17.4692C61.5391 15.7559 61.552 14.3801 61.578 13.3418C61.604 12.2948 61.6515 11.5117 61.7208 10.9925C61.7986 10.4647 61.9068 10.1143 62.0452 9.94123C62.1837 9.76817 62.387 9.68164 62.6553 9.68164ZM64.8098 14.5748C65.7529 14.5748 66.5317 14.272 67.146 13.6663C67.7603 13.0606 68.0675 12.3856 68.0675 11.6415C68.0675 11.2089 67.9204 10.9233 67.6262 10.7849C67.3407 10.6464 66.9124 10.5772 66.3413 10.5772H65.5755C65.4457 10.5772 65.3376 10.5815 65.2511 10.5902C65.1732 10.5902 65.0867 10.5945 64.9915 10.6032C64.8703 11.754 64.8098 13.0779 64.8098 14.5748ZM64.8357 21.0774C64.879 21.0774 65.1083 21.0861 65.5236 21.1034C65.9389 21.1207 66.2677 21.1293 66.51 21.1293C67.4359 21.1293 68.0848 21.0471 68.4569 20.8827C68.8376 20.7183 69.028 20.2813 69.028 19.5718C69.028 18.9921 68.8506 18.395 68.4958 17.7807C68.1497 17.1577 67.6522 16.6385 67.0032 16.2232C66.3629 15.8078 65.6318 15.6002 64.8098 15.6002C64.8098 15.7905 64.7968 16.1323 64.7708 16.6255C64.7535 17.1187 64.7449 17.5124 64.7449 17.8066C64.7449 18.2306 64.7752 19.3209 64.8357 21.0774Z" fill="white"/>
<path d="M50.3899 21.1295H54.4264C54.4177 20.368 54.4048 19.7796 54.3875 19.3643C54.3701 18.949 54.3442 18.2048 54.3096 17.1319C54.2836 16.0503 54.2706 15.3278 54.2706 14.9643C54.2706 13.6924 54.2923 12.7146 54.3355 12.031C54.3788 11.3388 54.4437 10.811 54.5302 10.4476C54.6167 10.0842 54.7163 9.86351 54.8287 9.78563C54.9412 9.69911 55.0926 9.65584 55.283 9.65584C55.5253 9.65584 55.72 9.66017 55.8671 9.66882C56.0228 9.66882 56.1915 9.67315 56.3732 9.6818C56.5723 9.6818 56.8794 9.66449 57.2948 9.62988H57.5933C57.8269 9.67315 57.9437 9.81159 57.9437 10.0452C57.9437 10.175 57.9048 10.3957 57.8269 10.7072C57.7577 11.0187 57.7058 11.3215 57.6711 11.6157C57.55 12.3685 57.4894 13.4501 57.4894 14.8605V17.3395C57.4894 18.075 57.5067 18.6894 57.5414 19.1826C57.576 19.6672 57.6409 20.0306 57.736 20.2729C57.8312 20.5151 57.987 20.6709 58.2033 20.7401H58.6835C58.796 20.7228 58.9301 20.6925 59.0859 20.6492C59.2416 20.5973 59.3671 20.5584 59.4622 20.5324C59.5574 20.5065 59.6872 20.4935 59.8516 20.4935C60.1112 20.4935 60.2972 20.567 60.4097 20.7141C60.5309 20.8612 60.5914 20.9997 60.5914 21.1295C60.5914 21.2506 60.5568 21.4237 60.4876 21.6486C60.427 21.8736 60.3189 22.2024 60.1631 22.6351C60.0074 23.0764 59.7997 23.6994 59.5401 24.5041C59.2805 25.3174 59.021 26.1438 58.7614 26.9831H57.2948C57.4938 26.1611 57.5933 25.5121 57.5933 25.0362C57.5933 24.3007 57.4765 23.721 57.2428 23.297C57.0092 22.8817 56.5333 22.5658 55.8151 22.3495C55.1056 22.1419 54.0327 22.038 52.5963 22.038C51.6532 22.038 50.6711 22.0553 49.6501 22.0899C49.2088 22.1159 48.906 22.1332 48.7416 22.1419C48.5858 22.1505 48.4344 22.1592 48.2873 22.1678C48.1489 22.1851 47.9801 22.1938 47.7811 22.1938C47.5562 22.1938 47.3874 22.1289 47.275 21.9991C47.1711 21.8693 47.0932 21.5794 47.0413 21.1295C46.9981 20.6795 46.9678 20.0392 46.9505 19.2086C46.9418 18.3692 46.9375 16.9545 46.9375 14.9643C46.9375 12.6713 47.011 11.2133 47.1581 10.5903C47.3052 9.96734 47.5648 9.65584 47.9369 9.65584C48.1878 9.65584 48.3868 9.66017 48.5339 9.66882C48.681 9.66882 48.8454 9.67315 49.0271 9.6818C49.2348 9.6818 49.5463 9.66449 49.9616 9.62988H50.2342C50.4591 9.66449 50.5716 9.80294 50.5716 10.0452C50.5716 10.2961 50.5197 10.7115 50.4159 11.2912C50.3207 11.871 50.2515 12.4074 50.2082 12.9006C50.1649 13.3852 50.1433 14.0385 50.1433 14.8605C50.1433 15.9248 50.1563 16.7555 50.1823 17.3525C50.2082 17.9409 50.2774 19.1999 50.3899 21.1295Z" fill="white"/>
<path d="M45.0445 10.8771L45.7324 11.6948C45.3776 11.9371 44.9666 12.1534 44.4994 12.3438C44.0321 12.5341 43.6211 12.6293 43.2664 12.6293C42.6694 12.6293 42.042 12.3178 41.3844 11.6948C41.2806 11.5996 41.0989 11.4049 40.8393 11.1108C40.5797 10.8166 40.3591 10.6046 40.1774 10.4748C39.9957 10.3363 39.7923 10.2671 39.5674 10.2671C38.7627 10.2671 38.2305 10.7819 37.971 11.8116C37.7114 12.8327 37.5643 14.1349 37.5297 15.7184C37.9796 15.3723 38.5723 15.0348 39.3078 14.706C40.0433 14.3685 40.6273 14.1998 41.06 14.1998C41.3974 14.1998 41.7176 14.2517 42.0204 14.3556C42.1935 14.4161 42.5006 14.5762 42.9419 14.8358C43.3919 15.0867 43.6947 15.2122 43.8504 15.2122C44.1966 15.2122 44.534 15.0694 44.8628 14.7839L45.3949 15.4977C44.2441 16.7957 43.2967 17.4446 42.5525 17.4446C42.3103 17.4446 42.1069 17.4143 41.9425 17.3538C41.7781 17.2845 41.5618 17.1634 41.2936 16.9903C40.8177 16.6702 40.4456 16.4539 40.1774 16.3414C39.9178 16.2202 39.6366 16.1597 39.3337 16.1597C38.7281 16.1597 38.1354 16.4193 37.5556 16.9384V17.2759C37.5816 18.1671 37.7546 18.9459 38.0748 19.6121C38.3949 20.2784 38.8319 20.7976 39.3857 21.1697C39.9394 21.5331 40.5581 21.7148 41.2417 21.7148C42.28 21.7148 43.4265 21.2562 44.6811 20.339L45.1743 20.8971C44.8715 21.2172 44.4821 21.5417 44.0062 21.8705C43.5303 22.1907 42.9852 22.4503 42.3708 22.6493C41.7565 22.8483 41.0989 22.9478 40.398 22.9478C38.9617 22.9478 37.7936 22.6882 36.8937 22.1691C35.9938 21.6585 35.3189 21.0355 34.869 20.3C34.4277 19.5559 34.1465 18.8853 34.0253 18.2883C33.9042 17.6912 33.8306 17.1418 33.8047 16.6399V15.7443C33.848 15.0262 33.995 14.2907 34.246 13.5379C34.5056 12.7851 34.869 12.0885 35.3362 11.4482C35.8035 10.8079 36.3875 10.2931 37.0884 9.90369C37.7979 9.50566 38.5983 9.30664 39.4895 9.30664C40.2163 9.30664 40.7658 9.38452 41.1378 9.54027C41.5185 9.69602 41.8776 9.92532 42.2151 10.2282C42.5525 10.5224 42.864 10.7387 43.1496 10.8771C43.4438 11.0156 43.8807 11.0848 44.4605 11.0848C44.6941 11.0848 44.8888 11.0156 45.0445 10.8771Z" fill="white"/>
<path d="M28.4156 10.5788H24.405C24.1368 12.0411 24.0027 13.4688 24.0027 14.8619C24.0027 15.5887 24.02 16.2334 24.0546 16.7958C24.0892 17.3496 24.1584 18.1759 24.2623 19.2748C24.3748 20.3737 24.431 21.04 24.431 21.2736C24.431 21.5592 24.3704 21.7582 24.2493 21.8707C24.1282 21.9832 23.834 22.0394 23.3667 22.0394H21.8352C21.5756 22.0394 21.3766 21.9659 21.2382 21.8188C21.1084 21.6717 21.0132 21.3688 20.9526 20.9102C20.8921 20.4516 20.8488 19.82 20.8228 19.0152C20.8055 18.2105 20.7969 16.8607 20.7969 14.9657C20.7969 13.7803 20.8185 12.8025 20.8618 12.0324C20.9137 11.2623 20.9829 10.7215 21.0694 10.41C21.156 10.0899 21.2555 9.89085 21.368 9.81298C21.4804 9.72645 21.6362 9.68319 21.8352 9.68319H30.2845C30.5268 9.67453 30.7345 9.67021 30.9075 9.67021C31.0892 9.66155 31.2709 9.65723 31.4526 9.65723C31.6257 9.65723 31.7295 9.68319 31.7641 9.7351C31.8074 9.77837 31.829 9.89085 31.829 10.0726C31.829 10.4533 31.7771 10.9335 31.6733 11.5133C31.5695 12.093 31.4959 12.5776 31.4526 12.9669C31.418 13.3563 31.4007 13.988 31.4007 14.8619C31.4007 15.0782 31.4656 15.9089 31.5954 17.3539C31.7339 18.7989 31.8031 20.1055 31.8031 21.2736C31.8031 21.5505 31.7382 21.7495 31.6084 21.8707C31.4873 21.9832 31.1974 22.0394 30.7388 22.0394H29.1943C28.9347 22.0394 28.74 21.9702 28.6102 21.8317C28.4805 21.6846 28.3809 21.3731 28.3117 20.8972C28.2512 20.4127 28.2122 19.7767 28.1949 18.9893C28.1863 18.2019 28.1819 16.8607 28.1819 14.9657C28.1819 13.3823 28.2598 11.9199 28.4156 10.5788Z" fill="white"/>
<path d="M18.7898 7.8527H10.8822V6.59275H12.178C12.178 5.49885 12.075 4.58563 11.8688 3.8531C11.6626 3.12057 11.3927 2.56873 11.0589 2.19758C10.7349 1.82644 10.3962 1.57738 10.0428 1.45041C9.68942 1.32343 9.31637 1.25995 8.92369 1.25995C7.87327 1.25995 7.00446 1.77272 6.31727 2.79826C5.63989 3.8238 5.3012 5.45978 5.3012 7.7062C5.3012 9.49357 5.36992 10.6558 5.50736 11.193C5.6448 11.7302 5.86077 12.1893 6.15528 12.5702C6.4498 12.9413 6.67068 13.5615 6.81794 14.4308C6.97501 15.2903 7.05354 16.9605 7.05354 19.4413C7.05354 19.6757 7.03391 19.8759 6.99464 20.042C6.96519 20.208 6.92101 20.3838 6.86211 20.5694C6.80321 20.7452 6.74922 20.9308 6.70013 21.1261C6.83757 21.2433 7.07809 21.3019 7.42168 21.3019C8.05979 21.3019 8.75189 20.9698 9.49799 20.3057C10.2539 19.6415 10.892 18.7478 11.4123 17.6246C11.9424 16.5014 12.2075 15.2952 12.2075 14.0059C12.2075 13.6446 12.1977 13.376 12.178 13.2002H10.8822V11.9402H18.7898V13.2002H17.5529C17.494 14.5285 17.1307 15.7542 16.4632 16.8775C15.7956 17.9909 14.9366 18.9383 13.8862 19.7197C12.8358 20.501 11.7265 21.087 10.5582 21.4777C9.39 21.8782 8.31503 22.0784 7.33333 22.0784C6.42035 22.0784 5.68407 21.9563 5.1245 21.7121V20.8771C5.11468 20.3399 5.01651 19.8124 4.82998 19.2948C4.64346 18.7674 4.41276 18.2888 4.13788 17.859C3.86301 17.4293 3.54395 16.9849 3.18072 16.5258C2.81749 16.0668 2.50335 15.6663 2.23829 15.3245C1.29585 14.0743 0.687193 12.9999 0.412316 12.1014C0.137439 11.193 0 10.2603 0 9.30311C0 7.55481 0.387773 5.97255 1.16332 4.55633C1.93887 3.13034 3.02856 2.01689 4.43239 1.216C5.83623 0.405332 7.43641 0 9.23293 0C11.108 0 12.6394 0.34673 13.8273 1.04019C15.0152 1.73365 15.884 2.56873 16.4337 3.54544C16.9933 4.51237 17.3663 5.52815 17.5529 6.59275H18.7898V7.8527Z" fill="white"/>
</svg>
