<svg width="70" height="18" viewBox="0 0 70 18" fill="none" xmlns="http://www.w3.org/2000/svg">
<g clip-path="url(#clip0_254_996)">
<path d="M34.8316 4.29712C35.2585 3.79118 35.712 3.41172 36.1923 3.15875C36.6858 2.90578 37.2728 2.7793 37.953 2.7793C38.1265 2.7793 38.2932 2.78595 38.4533 2.79927C38.6134 2.81258 38.7601 2.83255 38.8935 2.85918V5.45547C38.5867 5.45547 38.2733 5.46212 37.953 5.47544C37.6463 5.47544 37.3528 5.50206 37.0727 5.55532C36.7925 5.60858 36.5191 5.69512 36.2523 5.81495C35.9988 5.92146 35.7721 6.08123 35.572 6.29427C35.2652 6.64044 35.0717 7.01323 34.9917 7.41266C34.925 7.81209 34.8916 8.26476 34.8916 8.77071V13.5039H32.0703V2.97901H34.6715L34.8316 4.29712Z" fill="white"/>
<path d="M52.8371 5.01654C52.637 5.01654 52.4436 5.02985 52.2568 5.05648C52.0834 5.0831 51.9233 5.12971 51.7766 5.19628C51.6298 5.24953 51.5098 5.34273 51.4164 5.47588C51.323 5.5957 51.283 5.75547 51.2964 5.95519C51.3097 6.18153 51.3964 6.36128 51.5565 6.49442C51.7299 6.62756 51.9701 6.73408 52.2768 6.81396C52.5703 6.89385 52.8971 6.97373 53.2573 7.05362C53.6174 7.12019 53.971 7.19342 54.3178 7.2733C54.6646 7.35319 55.0047 7.44639 55.3383 7.55291C55.6717 7.65942 55.9652 7.79256 56.2187 7.95231C56.5655 8.16534 56.8523 8.46492 57.079 8.85106C57.3058 9.2372 57.4125 9.70982 57.3992 10.269C57.3992 10.8149 57.3058 11.2876 57.1191 11.687C56.9457 12.0731 56.7056 12.406 56.3988 12.6855C56.0119 13.0318 55.525 13.2847 54.9381 13.4445C54.3511 13.5909 53.7576 13.6642 53.1573 13.6642C52.4636 13.6642 51.8233 13.5909 51.2364 13.4445C50.6627 13.298 50.1358 13.0384 49.6556 12.6656C49.3088 12.386 49.0153 12.0465 48.7752 11.647C48.5484 11.2343 48.4151 10.7417 48.375 10.1691H51.2163C51.2964 10.6219 51.5165 10.9348 51.8767 11.1078C52.2501 11.2809 52.6903 11.3675 53.1972 11.3675C53.344 11.3675 53.4974 11.3608 53.6575 11.3475C53.8309 11.3208 53.9843 11.2809 54.1177 11.2276C54.2644 11.1611 54.3845 11.0679 54.4778 10.9481C54.5845 10.8149 54.6379 10.6751 54.6379 10.5287C54.6513 10.1825 54.5312 9.93615 54.2778 9.78972C54.0376 9.64322 53.7775 9.54336 53.4974 9.49014C53.2172 9.42354 52.9172 9.35702 52.5969 9.29042C52.2768 9.22382 51.9566 9.15729 51.6365 9.09069C51.3297 9.02409 51.023 8.94427 50.7161 8.85106C50.4093 8.74455 50.1292 8.60469 49.8757 8.43166C49.4889 8.19203 49.1621 7.87249 48.8952 7.47302C48.6418 7.07359 48.5351 6.54768 48.5751 5.89528C48.6018 5.32276 48.7419 4.83679 48.9953 4.43737C49.2621 4.02462 49.5889 3.69842 49.9758 3.45876C50.3759 3.20579 50.8229 3.02605 51.3164 2.91954C51.8233 2.81302 52.3369 2.75977 52.8571 2.75977C53.4307 2.75977 53.971 2.81967 54.4778 2.93951C54.9847 3.05933 55.4249 3.25239 55.7985 3.51868C56.1853 3.78497 56.4921 4.13114 56.7189 4.55719C56.959 4.98325 57.0924 5.5025 57.1191 6.11497H54.3978C54.3444 5.67559 54.171 5.38268 53.8776 5.23622C53.5974 5.08976 53.2506 5.01654 52.8371 5.01654Z" fill="white"/>
<path d="M66.3972 12.5248C66.0236 12.9109 65.5501 13.1971 64.9765 13.3836C64.4029 13.57 63.7959 13.6632 63.1557 13.6632C62.4887 13.6632 61.8418 13.5567 61.2148 13.3436C60.6012 13.1172 60.0809 12.7777 59.6541 12.3251C59.1338 11.7925 58.7736 11.18 58.5735 10.4877C58.3735 9.78207 58.2734 9.06308 58.2734 8.3308C58.2734 6.61324 58.7536 5.23522 59.714 4.19671C60.1276 3.74402 60.6612 3.39119 61.3148 3.13822C61.9685 2.87194 62.6621 2.74545 63.3957 2.75876C63.6359 2.75876 63.896 2.77874 64.1762 2.81868C64.4562 2.85862 64.7364 2.93851 65.0165 3.05833C65.2966 3.16485 65.5634 3.30465 65.8169 3.47773C66.0704 3.65082 66.2971 3.86385 66.4972 4.11682L66.7974 2.97845H69.2385V17.8971H66.3972V12.5248ZM63.776 11.1667C64.1895 11.1667 64.5563 11.0935 64.8764 10.9471C65.21 10.7872 65.4834 10.5742 65.6968 10.308C65.9236 10.0417 66.0904 9.73542 66.1971 9.38927C66.3171 9.04313 66.3772 8.66364 66.3772 8.25089C66.4038 7.37216 66.1837 6.65985 65.7168 6.11396C65.2633 5.56808 64.6097 5.28848 63.756 5.27516C63.3158 5.27516 62.9222 5.34839 62.5754 5.49485C62.2419 5.64131 61.9618 5.85433 61.735 6.13394C61.5215 6.40022 61.3615 6.71311 61.2548 7.07259C61.1481 7.41876 61.0947 7.79822 61.0947 8.21098C61.0947 8.65034 61.1481 9.04978 61.2548 9.40923C61.3748 9.75538 61.5483 10.0616 61.775 10.3279C62.0018 10.5942 62.2819 10.8006 62.6154 10.9471C62.9489 11.0935 63.3358 11.1667 63.776 11.1667Z" fill="white"/>
<path fill-rule="evenodd" clip-rule="evenodd" d="M28.0501 12.4259C27.6499 12.8785 27.1696 13.1981 26.6094 13.3845C26.0491 13.5709 25.4422 13.6641 24.7885 13.6641C24.1349 13.6641 23.4946 13.5642 22.8676 13.3645C22.2541 13.1515 21.7204 12.812 21.2669 12.3459C20.76 11.8134 20.4065 11.2009 20.2064 10.5086C20.0063 9.81624 19.9062 9.10391 19.9062 8.37162C19.9062 6.64079 20.3865 5.25611 21.3469 4.21759C21.7605 3.76491 22.294 3.41208 22.9477 3.15911C23.6146 2.90614 24.3283 2.7863 25.0887 2.79962C25.5822 2.77299 26.1158 2.85953 26.6894 3.05924C27.263 3.25896 27.7566 3.59182 28.1701 4.05782L28.4702 2.97936H30.9114V11.5871V12.4259H28.0501ZM26.5894 10.928C26.2559 11.0877 25.869 11.1677 25.4288 11.1677C24.9886 11.1677 24.6018 11.1011 24.2683 10.9679C23.9348 10.8215 23.6547 10.6218 23.4279 10.3688C23.2012 10.1025 23.0277 9.79629 22.9077 9.45014C22.801 9.09061 22.7476 8.69116 22.7476 8.25181C22.7476 7.83906 22.801 7.45296 22.9077 7.09348C23.0144 6.73399 23.1744 6.4211 23.3878 6.15481C23.6146 5.88853 23.8948 5.67551 24.2282 5.51574C24.5751 5.35596 24.9686 5.27608 25.4088 5.27608C26.2626 5.28939 26.9162 5.56899 27.3697 6.11488C27.8366 6.64744 28.07 7.32647 28.07 8.15195C28.07 8.56469 28.0166 8.95749 27.9099 9.33024C27.8032 9.68977 27.6432 10.0093 27.4298 10.2889C27.2163 10.5552 26.9362 10.7682 26.5894 10.928Z" fill="white"/>
<path d="M30.9122 12.4258H28.0509L28.068 15.2161H20.9219V17.7838H30.9122V12.4258Z" fill="white"/>
<path d="M41.3898 9.88953V5.43588H39.7891V2.9794H41.3898V0.103516H44.2111V2.9794H47.3125V5.43588H44.2111V11.0539V11.1268V13.5043H41.3898V9.88953Z" fill="white"/>
<path d="M44.2109 13.5032H47.503V11.0527H44.2109V11.1257V13.5032Z" fill="white"/>
<path d="M7.86487 1.45312C12.0747 1.45318 15.4876 4.85956 15.4876 9.06143C15.4875 10.1236 15.2681 11.1344 14.8742 12.0527C14.3508 11.39 13.5402 10.9638 12.6292 10.9636C11.0505 10.9636 9.77085 12.241 9.77069 13.8166C9.77069 14.7257 10.1968 15.535 10.8603 16.0575C9.94061 16.4503 8.92858 16.6696 7.86487 16.6696C3.65508 16.6696 0.242249 13.2632 0.242188 9.06143C0.242188 4.85952 3.65504 1.45312 7.86487 1.45312ZM14.8742 12.0527C15.2576 12.5382 15.4875 13.1505 15.4876 13.8166C15.4876 15.3923 14.2077 16.6695 12.6292 16.6696C11.9612 16.6696 11.347 16.4406 10.8603 16.0575C12.6605 15.2886 14.1036 13.8493 14.8742 12.0527Z" fill="white"/>
</g>
<defs>
<clipPath id="clip0_254_996">
<rect width="69" height="18" fill="white" transform="translate(0.242188)"/>
</clipPath>
</defs>
</svg>
